<svg xmlns="http://www.w3.org/2000/svg" xmlns:xlink="http://www.w3.org/1999/xlink"><defs><style>
    .sprite-symbol-usage {display: none;}
    .sprite-symbol-usage:target {display: inline;}
  </style><symbol viewBox="0 0 8 16" fill="none" id="arrow">
<path d="M4.35355 15.3536C4.15829 15.5488 3.84171 15.5488 3.64645 15.3536L0.464466 12.1716C0.269204 11.9763 0.269204 11.6597 0.464466 11.4645C0.659728 11.2692 0.976311 11.2692 1.17157 11.4645L4 14.2929L6.82843 11.4645C7.02369 11.2692 7.34027 11.2692 7.53553 11.4645C7.7308 11.6597 7.7308 11.9763 7.53553 12.1716L4.35355 15.3536ZM4.5 0L4.5 15H3.5L3.5 0L4.5 0Z" fill="black" />
</symbol><symbol viewBox="0 0 11 20" fill="none" id="chevron">
<path d="M10 1L1 10L10 19" stroke="black" />
</symbol><symbol viewBox="0 0 14 14" fill="none" id="close">
<path fill-rule="evenodd" clip-rule="evenodd" d="M5.6002 7L0 1.3998L1.3998 0L7 5.6002L12.6002 0L14 1.3998L8.3998 7L14 12.6002L12.6002 14L7 8.3998L1.3998 14L0 12.6002L5.6002 7Z" fill="black" />
</symbol><symbol viewBox="0 0 14 14" fill="none" id="inst">
<path d="M9.24 7C9.24 7.44303 9.10863 7.87611 8.86249 8.24448C8.61636 8.61284 8.26652 8.89995 7.85721 9.06949C7.4479 9.23903 6.99752 9.28339 6.563 9.19696C6.12848 9.11053 5.72935 8.89719 5.41608 8.58392C5.10281 8.27065 4.88947 7.87152 4.80304 7.437C4.71661 7.00248 4.76097 6.5521 4.93051 6.14279C5.10005 5.73348 5.38716 5.38364 5.75552 5.13751C6.12389 4.89137 6.55697 4.76 7 4.76C7.59387 4.76069 8.16323 4.9969 8.58316 5.41684C9.0031 5.83677 9.23932 6.40613 9.24 7ZM14 3.92V10.08C13.9988 11.1193 13.5854 12.1157 12.8505 12.8505C12.1157 13.5854 11.1193 13.9988 10.08 14H3.92C2.88072 13.9988 1.88434 13.5854 1.14945 12.8505C0.414565 12.1157 0.00118572 11.1193 0 10.08V3.92C0.00118572 2.88072 0.414565 1.88434 1.14945 1.14945C1.88434 0.414565 2.88072 0.00118572 3.92 0H10.08C11.1193 0.00118572 12.1157 0.414565 12.8505 1.14945C13.5854 1.88434 13.9988 2.88072 14 3.92ZM10.36 7C10.36 6.33545 10.1629 5.68583 9.79374 5.13328C9.42454 4.58073 8.89978 4.15008 8.28582 3.89577C7.67186 3.64145 6.99627 3.57492 6.3445 3.70456C5.69272 3.83421 5.09403 4.15422 4.62412 4.62412C4.15422 5.09403 3.83421 5.69272 3.70456 6.3445C3.57492 6.99627 3.64145 7.67186 3.89577 8.28582C4.15008 8.89978 4.58073 9.42454 5.13328 9.79374C5.68583 10.1629 6.33545 10.36 7 10.36C7.89082 10.359 8.74487 10.0047 9.37477 9.37477C10.0047 8.74487 10.359 7.89082 10.36 7ZM11.48 3.36C11.48 3.19386 11.4307 3.03146 11.3384 2.89332C11.2461 2.75518 11.1149 2.64752 10.9615 2.58394C10.808 2.52036 10.6391 2.50373 10.4761 2.53614C10.3132 2.56855 10.1635 2.64855 10.046 2.76603C9.92855 2.88351 9.84855 3.03318 9.81614 3.19612C9.78373 3.35907 9.80036 3.52796 9.86394 3.68145C9.92752 3.83494 10.0352 3.96613 10.1733 4.05843C10.3115 4.15073 10.4739 4.2 10.64 4.2C10.8628 4.2 11.0764 4.1115 11.234 3.95397C11.3915 3.79644 11.48 3.58278 11.48 3.36Z" fill="black" />
</symbol><symbol viewBox="0 0 41 8" fill="none" id="longArrow">
<path d="M40.3536 4.35355C40.5488 4.15829 40.5488 3.84171 40.3536 3.64645L37.1716 0.464466C36.9763 0.269204 36.6597 0.269204 36.4645 0.464466C36.2692 0.659728 36.2692 0.976311 36.4645 1.17157L39.2929 4L36.4645 6.82843C36.2692 7.02369 36.2692 7.34027 36.4645 7.53553C36.6597 7.7308 36.9763 7.7308 37.1716 7.53553L40.3536 4.35355ZM0 4.5H40V3.5H0V4.5Z" fill="black" />
</symbol><symbol viewBox="0 0 12 12" fill="none" id="mail">
<path d="M11.8614 0.14561C11.7939 0.0784497 11.7085 0.0319508 11.6154 0.0115799C11.5223 -0.00879102 11.4253 -0.00218693 11.3358 0.0306157L0.323051 4.03041C0.228075 4.06639 0.146306 4.13038 0.0886045 4.21388C0.0309031 4.29738 0 4.39643 0 4.49789C0 4.59934 0.0309031 4.6984 0.0886045 4.78189C0.146306 4.86539 0.228075 4.92938 0.323051 4.96536L5.12863 6.88526L7.05086 11.685C7.08697 11.7757 7.14888 11.8539 7.22893 11.9098C7.30899 11.9658 7.4037 11.9971 7.50138 12C7.60254 11.9979 7.7007 11.9653 7.78291 11.9064C7.86512 11.8475 7.92753 11.7651 7.96191 11.67L11.9666 0.670583C12.0007 0.582126 12.0089 0.485807 11.9903 0.392859C11.9717 0.29991 11.927 0.214161 11.8614 0.14561ZM7.50138 10.1001L6.10476 6.60028L8.50254 4.2054L7.79672 3.50044L5.37892 5.91531L1.89487 4.50039L10.6701 1.33555L7.50138 10.1001Z" fill="currentColor" />
</symbol><symbol viewBox="0 0 24 19" fill="none" id="menu">
<rect width="24" height="1" fill="black" />
<rect y="9" width="24" height="1" fill="black" />
<rect y="18" width="24" height="1" fill="black" />
</symbol><symbol viewBox="0 0 10 16" fill="none" id="ok">
<path d="M4.18017 11.2353C2.8895 11.1057 1.72528 10.7978 0.728829 10.0435C0.604904 9.94955 0.476765 9.85881 0.364642 9.7543C-0.0720439 9.34922 -0.115881 8.88418 0.229759 8.40618C0.524817 7.99624 1.02051 7.88686 1.5356 8.12262C1.63508 8.16718 1.7295 8.2247 1.82139 8.28547C3.67857 9.52016 6.2304 9.55419 8.09433 8.34137C8.27979 8.20364 8.47706 8.09184 8.70552 8.03512C9.15064 7.92494 9.5654 8.08292 9.80398 8.45965C10.0771 8.88904 10.0737 9.31033 9.73738 9.64331C9.22229 10.1561 8.60183 10.5264 7.91308 10.7848C7.26142 11.0295 6.54738 11.1527 5.84177 11.2337C5.94799 11.3463 5.99857 11.4014 6.06517 11.4662C7.02369 12.3979 7.98726 13.3271 8.94325 14.2621C9.26866 14.5813 9.33694 14.9758 9.15738 15.3469C8.96096 15.752 8.52258 16.0185 8.0918 15.9902C7.8195 15.9715 7.60706 15.8403 7.41738 15.6564C6.69407 14.9515 5.95726 14.2597 5.24828 13.5418C5.04174 13.3328 4.94226 13.3725 4.76017 13.554C4.03264 14.2791 3.29331 14.9929 2.54807 15.7034C2.21424 16.0218 1.81633 16.0793 1.42854 15.8978C1.01714 15.7034 0.754119 15.2975 0.775195 14.8883C0.788683 14.6113 0.929468 14.4006 1.12589 14.211C2.07514 13.2939 3.02101 12.3744 3.96773 11.4565C4.03011 11.3949 4.08912 11.3301 4.18017 11.2353Z" fill="black" />
<path d="M4.97077 7.99998C2.78235 7.99203 0.988045 6.18054 1.00006 3.99086C1.01288 1.77734 2.80879 -0.00554862 5.01883 1.29764e-05C7.23288 0.00557458 9.01037 1.81548 8.99995 4.05204C8.98794 6.23695 7.18161 8.00713 4.97077 7.99998ZM6.95973 3.99563C6.96121 3.73976 6.91169 3.48612 6.81401 3.2493C6.71634 3.01248 6.57244 2.79714 6.39059 2.61566C6.20874 2.43417 5.99251 2.29013 5.75435 2.19181C5.51619 2.09348 5.26078 2.04281 5.00281 2.04271C4.74241 2.04246 4.48458 2.09368 4.24436 2.19337C4.00414 2.29306 3.78635 2.43922 3.60372 2.62333C3.42109 2.80743 3.27727 3.02578 3.18067 3.26563C3.08407 3.50548 3.03662 3.76201 3.04109 4.02026C3.0414 4.27623 3.09275 4.52961 3.19218 4.76581C3.29162 5.00202 3.43718 5.21639 3.62048 5.39657C3.80378 5.57675 4.0212 5.7192 4.26023 5.8157C4.49925 5.91221 4.75516 5.96086 5.01322 5.95887C5.27129 5.95795 5.5266 5.90632 5.76444 5.80698C6.00227 5.70764 6.21791 5.56254 6.39889 5.38008C6.57987 5.19761 6.72261 4.98139 6.81888 4.7439C6.91514 4.50641 6.96301 4.25236 6.95973 3.99642V3.99563Z" fill="black" />
</symbol><symbol viewBox="0 0 14 13" fill="none" id="phone">
<path d="M13.1224 13C5.65775 13.0097 -0.0078668 7.68624 8.19935e-06 0.814936C8.19935e-06 0.365624 0.392008 0 0.875008 0H3.18501C3.61813 0 3.98651 0.29575 4.05038 0.693874C4.20272 1.64861 4.50181 2.5781 4.93851 3.45393L5.02863 3.63431C5.08917 3.75569 5.10219 3.89288 5.06545 4.02222C5.02871 4.15156 4.94452 4.26495 4.82738 4.34281C4.11163 4.81731 3.83863 5.77199 4.39601 6.51624C5.09513 7.45062 5.97625 8.26962 6.9825 8.9188C7.78488 9.43555 8.813 9.18205 9.32313 8.51824C9.40689 8.40914 9.5291 8.33067 9.66859 8.2964C9.80808 8.26212 9.95609 8.2742 10.087 8.33055L10.2804 8.41343C11.2236 8.81968 12.2246 9.09755 13.2528 9.23893C13.6815 9.29824 14 9.6403 14 10.0433V12.1875C14 12.2943 13.9773 12.4 13.9333 12.4986C13.8893 12.5972 13.8248 12.6868 13.7434 12.7623C13.6621 12.8378 13.5655 12.8976 13.4592 12.9384C13.353 12.9792 13.2391 13.0001 13.1241 13H13.1224Z" fill="currentColor" />
</symbol><symbol viewBox="0 0 16 8" fill="none" id="vk">
<path d="M3.03519 5.50175C3.65285 6.24114 4.36257 6.89498 5.27944 7.35758C6.31773 7.88188 7.43559 8.04 8.61457 7.99179C9.16536 7.96848 9.33104 7.84157 9.35643 7.35671C9.3735 7.02452 9.41695 6.69322 9.60207 6.3947C9.78401 6.10196 10.06 6.04656 10.3785 6.22869C10.537 6.32072 10.6705 6.43589 10.7969 6.55912C11.1072 6.85835 11.4076 7.16826 11.7291 7.45767C12.1332 7.82123 12.6126 8.03544 13.214 7.99179L15.5441 7.99267C15.9191 7.97023 16.1142 7.56408 15.8989 7.19316C15.7473 6.93425 15.5483 6.70391 15.338 6.48041C14.8618 5.97504 14.3007 5.54435 13.7701 5.08718C13.292 4.67472 13.2616 4.43527 13.6457 3.95935C14.0662 3.43943 14.517 2.94019 14.9406 2.42308C15.3358 1.93997 15.7414 1.45756 15.9483 0.879797C16.0809 0.51098 15.9636 0.348483 15.5372 0.283274C15.4634 0.272581 15.3866 0.272581 15.3118 0.272581L12.7763 0.269776C12.464 0.265394 12.2922 0.385996 12.1818 0.63053C12.0322 0.961133 11.8787 1.29156 11.7005 1.60954C11.2983 2.33298 10.8483 3.03222 10.2175 3.62349C10.0781 3.75373 9.9233 3.91903 9.69096 3.85119C9.40088 3.75741 9.31496 3.33425 9.31993 3.19139L9.31774 0.605638C9.26139 0.236996 9.16814 0.0716949 8.75286 0H6.11932C5.76873 0 5.59174 0.120777 5.40365 0.314476C5.2965 0.427189 5.26297 0.49941 5.48559 0.536923C5.9221 0.61002 6.16992 0.860164 6.2346 1.24704C6.33877 1.866 6.33162 2.48741 6.27111 3.10812C6.25385 3.28938 6.21853 3.46993 6.13738 3.63961C6.01019 3.90658 5.80384 3.96022 5.534 3.79597C5.29055 3.64768 5.11872 3.43873 4.94968 3.2289C4.31793 2.44008 3.81455 1.59008 3.40304 0.69679C3.28479 0.438584 3.07963 0.282397 2.7703 0.27784C2.00999 0.267147 1.24887 0.265569 0.487561 0.278716C0.0306152 0.285903 -0.105893 0.482407 0.0812106 0.849471C0.909189 2.47759 1.83122 4.06014 3.03519 5.50175Z" fill="black" />
</symbol></defs><use id="arrow-usage" xlink:href="#arrow" class="sprite-symbol-usage" /><use id="chevron-usage" xlink:href="#chevron" class="sprite-symbol-usage" /><use id="close-usage" xlink:href="#close" class="sprite-symbol-usage" /><use id="inst-usage" xlink:href="#inst" class="sprite-symbol-usage" /><use id="longArrow-usage" xlink:href="#longArrow" class="sprite-symbol-usage" /><use id="mail-usage" xlink:href="#mail" class="sprite-symbol-usage" /><use id="menu-usage" xlink:href="#menu" class="sprite-symbol-usage" /><use id="ok-usage" xlink:href="#ok" class="sprite-symbol-usage" /><use id="phone-usage" xlink:href="#phone" class="sprite-symbol-usage" /><use id="vk-usage" xlink:href="#vk" class="sprite-symbol-usage" /></svg>