<svg width="12" height="12" viewBox="0 0 12 12" fill="none" xmlns="http://www.w3.org/2000/svg">
<path d="M11.8614 0.14561C11.7939 0.0784497 11.7085 0.0319508 11.6154 0.0115799C11.5223 -0.00879102 11.4253 -0.00218693 11.3358 0.0306157L0.323051 4.03041C0.228075 4.06639 0.146306 4.13038 0.0886045 4.21388C0.0309031 4.29738 0 4.39643 0 4.49789C0 4.59934 0.0309031 4.6984 0.0886045 4.78189C0.146306 4.86539 0.228075 4.92938 0.323051 4.96536L5.12863 6.88526L7.05086 11.685C7.08697 11.7757 7.14888 11.8539 7.22893 11.9098C7.30899 11.9658 7.4037 11.9971 7.50138 12C7.60254 11.9979 7.7007 11.9653 7.78291 11.9064C7.86512 11.8475 7.92753 11.7651 7.96191 11.67L11.9666 0.670583C12.0007 0.582126 12.0089 0.485807 11.9903 0.392859C11.9717 0.29991 11.927 0.214161 11.8614 0.14561ZM7.50138 10.1001L6.10476 6.60028L8.50254 4.2054L7.79672 3.50044L5.37892 5.91531L1.89487 4.50039L10.6701 1.33555L7.50138 10.1001Z" fill="currentColor"/>
</svg>
