<svg width="10" height="16" viewBox="0 0 10 16" fill="none" xmlns="http://www.w3.org/2000/svg">
<path d="M4.18017 11.2353C2.8895 11.1057 1.72528 10.7978 0.728829 10.0435C0.604904 9.94955 0.476765 9.85881 0.364642 9.7543C-0.0720439 9.34922 -0.115881 8.88418 0.229759 8.40618C0.524817 7.99624 1.02051 7.88686 1.5356 8.12262C1.63508 8.16718 1.7295 8.2247 1.82139 8.28547C3.67857 9.52016 6.2304 9.55419 8.09433 8.34137C8.27979 8.20364 8.47706 8.09184 8.70552 8.03512C9.15064 7.92494 9.5654 8.08292 9.80398 8.45965C10.0771 8.88904 10.0737 9.31033 9.73738 9.64331C9.22229 10.1561 8.60183 10.5264 7.91308 10.7848C7.26142 11.0295 6.54738 11.1527 5.84177 11.2337C5.94799 11.3463 5.99857 11.4014 6.06517 11.4662C7.02369 12.3979 7.98726 13.3271 8.94325 14.2621C9.26866 14.5813 9.33694 14.9758 9.15738 15.3469C8.96096 15.752 8.52258 16.0185 8.0918 15.9902C7.8195 15.9715 7.60706 15.8403 7.41738 15.6564C6.69407 14.9515 5.95726 14.2597 5.24828 13.5418C5.04174 13.3328 4.94226 13.3725 4.76017 13.554C4.03264 14.2791 3.29331 14.9929 2.54807 15.7034C2.21424 16.0218 1.81633 16.0793 1.42854 15.8978C1.01714 15.7034 0.754119 15.2975 0.775195 14.8883C0.788683 14.6113 0.929468 14.4006 1.12589 14.211C2.07514 13.2939 3.02101 12.3744 3.96773 11.4565C4.03011 11.3949 4.08912 11.3301 4.18017 11.2353Z" fill="black"/>
<path d="M4.97077 7.99998C2.78235 7.99203 0.988045 6.18054 1.00006 3.99086C1.01288 1.77734 2.80879 -0.00554862 5.01883 1.29764e-05C7.23288 0.00557458 9.01037 1.81548 8.99995 4.05204C8.98794 6.23695 7.18161 8.00713 4.97077 7.99998ZM6.95973 3.99563C6.96121 3.73976 6.91169 3.48612 6.81401 3.2493C6.71634 3.01248 6.57244 2.79714 6.39059 2.61566C6.20874 2.43417 5.99251 2.29013 5.75435 2.19181C5.51619 2.09348 5.26078 2.04281 5.00281 2.04271C4.74241 2.04246 4.48458 2.09368 4.24436 2.19337C4.00414 2.29306 3.78635 2.43922 3.60372 2.62333C3.42109 2.80743 3.27727 3.02578 3.18067 3.26563C3.08407 3.50548 3.03662 3.76201 3.04109 4.02026C3.0414 4.27623 3.09275 4.52961 3.19218 4.76581C3.29162 5.00202 3.43718 5.21639 3.62048 5.39657C3.80378 5.57675 4.0212 5.7192 4.26023 5.8157C4.49925 5.91221 4.75516 5.96086 5.01322 5.95887C5.27129 5.95795 5.5266 5.90632 5.76444 5.80698C6.00227 5.70764 6.21791 5.56254 6.39889 5.38008C6.57987 5.19761 6.72261 4.98139 6.81888 4.7439C6.91514 4.50641 6.96301 4.25236 6.95973 3.99642V3.99563Z" fill="black"/>
</svg>
