<svg width="14" height="13" viewBox="0 0 14 13" fill="none" xmlns="http://www.w3.org/2000/svg">
<path d="M13.1224 13C5.65775 13.0097 -0.0078668 7.68624 8.19935e-06 0.814936C8.19935e-06 0.365624 0.392008 0 0.875008 0H3.18501C3.61813 0 3.98651 0.29575 4.05038 0.693874C4.20272 1.64861 4.50181 2.5781 4.93851 3.45393L5.02863 3.63431C5.08917 3.75569 5.10219 3.89288 5.06545 4.02222C5.02871 4.15156 4.94452 4.26495 4.82738 4.34281C4.11163 4.81731 3.83863 5.77199 4.39601 6.51624C5.09513 7.45062 5.97625 8.26962 6.9825 8.9188C7.78488 9.43555 8.813 9.18205 9.32313 8.51824C9.40689 8.40914 9.5291 8.33067 9.66859 8.2964C9.80808 8.26212 9.95609 8.2742 10.087 8.33055L10.2804 8.41343C11.2236 8.81968 12.2246 9.09755 13.2528 9.23893C13.6815 9.29824 14 9.6403 14 10.0433V12.1875C14 12.2943 13.9773 12.4 13.9333 12.4986C13.8893 12.5972 13.8248 12.6868 13.7434 12.7623C13.6621 12.8378 13.5655 12.8976 13.4592 12.9384C13.353 12.9792 13.2391 13.0001 13.1241 13H13.1224Z" fill="currentColor"/>
</svg>
