<svg width="16" height="8" viewBox="0 0 16 8" fill="none" xmlns="http://www.w3.org/2000/svg">
<path d="M3.03519 5.50175C3.65285 6.24114 4.36257 6.89498 5.27944 7.35758C6.31773 7.88188 7.43559 8.04 8.61457 7.99179C9.16536 7.96848 9.33104 7.84157 9.35643 7.35671C9.3735 7.02452 9.41695 6.69322 9.60207 6.3947C9.78401 6.10196 10.06 6.04656 10.3785 6.22869C10.537 6.32072 10.6705 6.43589 10.7969 6.55912C11.1072 6.85835 11.4076 7.16826 11.7291 7.45767C12.1332 7.82123 12.6126 8.03544 13.214 7.99179L15.5441 7.99267C15.9191 7.97023 16.1142 7.56408 15.8989 7.19316C15.7473 6.93425 15.5483 6.70391 15.338 6.48041C14.8618 5.97504 14.3007 5.54435 13.7701 5.08718C13.292 4.67472 13.2616 4.43527 13.6457 3.95935C14.0662 3.43943 14.517 2.94019 14.9406 2.42308C15.3358 1.93997 15.7414 1.45756 15.9483 0.879797C16.0809 0.51098 15.9636 0.348483 15.5372 0.283274C15.4634 0.272581 15.3866 0.272581 15.3118 0.272581L12.7763 0.269776C12.464 0.265394 12.2922 0.385996 12.1818 0.63053C12.0322 0.961133 11.8787 1.29156 11.7005 1.60954C11.2983 2.33298 10.8483 3.03222 10.2175 3.62349C10.0781 3.75373 9.9233 3.91903 9.69096 3.85119C9.40088 3.75741 9.31496 3.33425 9.31993 3.19139L9.31774 0.605638C9.26139 0.236996 9.16814 0.0716949 8.75286 0H6.11932C5.76873 0 5.59174 0.120777 5.40365 0.314476C5.2965 0.427189 5.26297 0.49941 5.48559 0.536923C5.9221 0.61002 6.16992 0.860164 6.2346 1.24704C6.33877 1.866 6.33162 2.48741 6.27111 3.10812C6.25385 3.28938 6.21853 3.46993 6.13738 3.63961C6.01019 3.90658 5.80384 3.96022 5.534 3.79597C5.29055 3.64768 5.11872 3.43873 4.94968 3.2289C4.31793 2.44008 3.81455 1.59008 3.40304 0.69679C3.28479 0.438584 3.07963 0.282397 2.7703 0.27784C2.00999 0.267147 1.24887 0.265569 0.487561 0.278716C0.0306152 0.285903 -0.105893 0.482407 0.0812106 0.849471C0.909189 2.47759 1.83122 4.06014 3.03519 5.50175Z" fill="black"/>
</svg>
